<svg id="Capa_1" enable-background="new 0 0 512.04 512.04" height="512" viewBox="0 0 512.04 512.04" width="512" xmlns="http://www.w3.org/2000/svg"><g><g><g clip-rule="evenodd" fill-rule="evenodd"><path d="m470.24 379.7-54.085-22.498-160.135 146.178z" fill="#76e7fb"/><path d="m256.02 503.38 160.135-146.178h-320.27z" fill="#00d0f6"/><path d="m256.02 503.38-160.135-146.178-54.085 22.498z" fill="#76e7fb"/><path d="m41.8 132.34 214.22-52.501v-71.179z" fill="#76e7fb"/><path d="m256.02 79.839 214.22 52.501-214.22-123.68z" fill="#76e7fb"/><path d="m416.155 357.202-160.135-277.363-160.135 277.363z" fill="#76e7fb"/><path d="m95.885 357.202 160.135-277.363-214.22 52.501z" fill="#00d0f6"/><path d="m256.02 79.839 160.135 277.363 54.085-224.862z" fill="#00d0f6"/><path d="m470.24 132.34-54.085 224.862 54.085 22.498z" fill="#76e7fb"/><path d="m95.885 357.202-54.085-224.862v247.36z" fill="#76e7fb"/></g><g><path d="m437.904 163.025-14.569-3.571 3.57-14.568 14.569 3.571zm-29.138-7.141-14.569-3.571 3.57-14.568 14.569 3.571z" fill="#fff"/></g></g><g><path d="m394.601 411.54h15v15h-15z" transform="matrix(.866 -.5 .5 .866 -155.649 257.194)"/><path d="m256.02 0-221.72 128.01v256.02l221.72 128.01 130.346-75.255-7.5-12.99-66.763 38.545 105.582-96.379 35.659 14.833-35.507 20.5 7.5 12.99 52.403-30.255v-256.019zm147.146 349.702h-294.291l147.145-254.863zm-131.865-258.395 189.9 46.541-47.944 199.333zm-7.781-17.352v-52.305l157.416 90.884zm-15 0-94.109 23.065 3.57 14.569 82.758-20.282-141.956 245.874-47.944-199.334 92.571-22.688-3.57-14.569-48.734 11.944 157.414-90.884zm-161.424 278.779-37.796 15.723v-172.863zm7.259 13.227 105.582 96.379-141.24-81.545zm20.87-1.259h281.589l-140.794 128.523zm347.515-169.108v172.862l-37.795-15.722z"/><path d="m287.52 296.506c13.785 0 25-11.215 25-25v-31.074c0-13.785-11.215-25-25-25s-25 11.215-25 25v31.074c0 13.785 11.215 25 25 25zm-10-56.074c0-5.514 4.486-10 10-10s10 4.486 10 10v31.074c0 5.514-4.486 10-10 10s-10-4.486-10-10z"/><path d="m212.933 245.156 1.446-7.359c.839-4.268 4.613-7.365 8.975-7.365 2.613 0 5.139 1.082 6.929 2.968 1.546 1.63 2.338 3.685 2.228 5.785-.239 4.541-1.906 8.332-5.246 11.93l-25.284 27.241v18.125l44.655.154.051-15-27.196-.094 18.768-20.221c5.704-6.144 8.811-13.327 9.231-21.348.329-6.25-1.918-12.251-6.325-16.896-4.608-4.857-11.101-7.643-17.81-7.643-11.512 0-21.477 8.19-23.693 19.474l-1.446 7.359z"/></g></g></svg>